<?xml version="1.0" standalone="no"?>
<!DOCTYPE svg PUBLIC "-//W3C//DTD SVG 20010904//EN"
 "http://www.w3.org/TR/2001/REC-SVG-20010904/DTD/svg10.dtd">
<svg version="1.0" xmlns="http://www.w3.org/2000/svg"
 width="240.000000pt" height="240.000000pt" viewBox="0 0 240.000000 240.000000"
 preserveAspectRatio="xMidYMid meet">
<metadata>
Created by potrace 1.11, written by Peter Selinger 2001-2013
</metadata>
<g transform="translate(0.000000,240.000000) scale(0.100000,-0.100000)"
fill="#000000" stroke="none">
<path d="M1000 2150 l0 -50 -100 0 -100 0 0 -50 0 -50 -50 0 -50 0 0 -50 0
-50 -50 0 -50 0 0 -50 0 -50 -50 0 -50 0 0 -50 0 -50 -50 0 -50 0 0 -100 0
-100 -50 0 -50 0 0 -150 0 -150 -50 0 -50 0 0 -300 0 -300 50 0 50 0 1 -102
c1 -57 2 -146 3 -199 l1 -95 50 0 c44 1 50 -1 48 -19 -1 -11 0 -14 3 -7 3 6
10 9 15 6 6 -3 5 -12 -3 -21 -7 -8 -13 -25 -14 -37 -1 -21 2 -22 111 -21 91 1
112 -2 111 -13 -1 -7 -7 -17 -12 -20 -14 -11 -15 -32 -1 -26 8 3 13 -4 14 -17
1 -15 -1 -18 -11 -10 -9 8 -13 7 -13 -2 0 -9 29 -12 108 -12 59 0 111 4 115 8
12 12 26 8 18 -5 -5 -9 -2 -9 9 1 9 7 17 9 17 4 0 -5 11 -9 24 -9 14 0 22 4
20 8 -3 4 0 8 5 8 6 0 11 -4 11 -8 0 -10 206 -9 216 1 12 12 26 8 18 -5 -5 -9
-2 -9 9 1 9 7 17 9 17 4 0 -5 11 -9 24 -9 14 0 22 4 20 8 -3 4 0 8 5 8 6 0 11
-4 11 -8 0 -10 206 -9 216 1 12 12 26 8 18 -6 -5 -8 -2 -8 9 2 9 7 17 9 17 4
0 -5 11 -9 24 -9 14 0 22 4 20 8 -3 4 0 8 5 8 6 0 11 -4 11 -8 0 -13 248 -8
262 6 16 16 33 15 19 -1 -9 -11 -5 -14 17 -12 25 1 27 4 27 42 0 23 4 45 8 50
5 4 50 8 100 8 l92 0 0 51 -1 51 41 -2 c22 -1 45 0 50 2 15 5 13 149 -3 165
-6 6 -12 8 -12 4 0 -5 -8 -2 -17 5 -11 10 -14 10 -9 2 9 -15 -6 -17 -20 -3 -6
6 -10 2 -11 -12 -2 -16 0 -19 6 -10 6 10 10 9 14 -7 2 -11 -2 -29 -10 -40 -8
-12 -10 -21 -4 -21 6 0 11 5 11 12 0 6 3 9 6 5 3 -3 1 -14 -5 -24 -6 -10 -11
-14 -11 -10 0 4 -10 3 -21 -4 -14 -7 -19 -7 -15 -1 4 7 -1 9 -14 7 -11 -2 -20
2 -20 8 0 7 -4 6 -10 -3 -9 -13 -10 -13 -10 0 0 13 -1 13 -10 0 -6 -10 -4 -21
8 -34 11 -12 12 -16 3 -11 -10 5 -12 4 -7 -3 4 -7 4 -18 -1 -24 -11 -19 -14
-50 -4 -44 5 3 12 -1 15 -9 5 -13 2 -14 -15 -4 -17 9 -20 8 -14 -2 5 -8 4 -10
-4 -5 -6 4 -10 15 -9 24 2 11 -4 16 -22 17 -17 0 -24 -5 -22 -16 1 -11 -6 -15
-28 -15 -27 0 -35 7 -31 29 0 4 -4 7 -10 7 -6 0 -8 -7 -5 -17 4 -10 4 -14 0
-11 -4 4 -15 3 -25 -3 -24 -12 -25 -1 -1 18 15 13 14 13 -7 3 -19 -10 -22 -10
-16 2 5 7 4 9 0 5 -13 -11 -15 -37 -3 -37 6 0 4 -7 -3 -17 -12 -14 -12 -16 0
-8 10 6 12 4 6 -4 -6 -10 -3 -11 15 -1 18 10 21 9 18 -2 -3 -7 -15 -12 -26
-12 -12 1 -22 -3 -22 -8 0 -6 8 -7 18 -4 14 5 14 4 -2 -9 -14 -11 -23 -12 -33
-4 -7 6 -13 8 -13 4 0 -4 8 -14 18 -21 9 -7 12 -14 5 -14 -6 0 -14 4 -18 10
-3 5 -11 8 -18 6 -7 -1 -9 -1 -4 1 4 3 7 9 7 15 0 6 -6 6 -15 -2 -8 -7 -13
-15 -11 -19 2 -3 -1 -17 -8 -30 -9 -15 -16 -20 -20 -12 -4 6 -2 11 5 11 7 0 9
3 6 6 -3 4 -2 14 3 24 6 12 5 17 -6 17 -7 0 -14 -4 -14 -9 0 -5 -11 -1 -25 8
-23 15 -24 15 -20 -6 3 -14 0 -20 -8 -17 -7 2 -11 13 -9 23 3 18 3 18 -11 -1
-9 -11 -19 -17 -23 -12 -4 4 -2 7 4 7 7 0 12 4 12 8 0 5 -7 9 -15 9 -8 0 -13
-3 -10 -5 7 -7 -15 -32 -27 -32 -6 0 -5 7 2 15 7 9 10 18 6 22 -3 3 -6 0 -6
-8 0 -12 -2 -12 -9 0 -6 9 -11 10 -15 2 -4 -6 -2 -11 4 -11 6 0 8 -5 4 -11 -5
-8 -9 -8 -14 1 -5 9 -9 9 -14 1 -4 -6 -3 -11 3 -11 10 0 9 -25 -2 -36 -6 -7
-11 10 -8 28 0 5 -4 8 -10 8 -6 0 -8 -7 -4 -18 5 -14 4 -15 -7 -4 -11 11 -10
16 5 27 12 8 14 15 8 20 -6 3 -11 0 -11 -7 -1 -8 -7 -5 -17 7 -14 18 -15 18
-9 2 4 -13 2 -17 -6 -14 -7 2 -12 10 -10 17 2 10 -1 10 -14 -1 -9 -8 -20 -14
-23 -14 -3 0 -6 -5 -7 -12 -4 -24 -21 -46 -28 -34 -4 6 -2 11 5 11 7 0 9 3 6
6 -3 4 -2 14 3 24 6 12 5 17 -6 17 -7 0 -14 -4 -14 -9 0 -5 -11 -1 -25 8 -23
15 -24 15 -20 -6 3 -14 0 -20 -8 -17 -7 2 -11 13 -9 23 3 18 3 18 -11 -1 -9
-11 -19 -17 -23 -12 -4 4 -2 7 4 7 7 0 12 4 12 8 0 5 -7 9 -15 9 -8 0 -13 -3
-10 -5 7 -7 -15 -32 -27 -32 -6 0 -5 7 2 15 7 9 10 18 6 22 -3 3 -6 0 -6 -8 0
-12 -2 -12 -9 0 -6 9 -11 10 -15 2 -4 -6 -2 -11 4 -11 6 0 8 -5 4 -11 -5 -8
-9 -8 -14 1 -5 9 -9 9 -14 1 -4 -6 -3 -11 3 -11 10 0 9 -25 -2 -36 -6 -7 -11
10 -8 29 0 4 -4 7 -10 7 -6 0 -8 -7 -4 -18 5 -14 4 -15 -7 -4 -11 11 -10 16 5
27 12 8 14 15 8 20 -6 3 -11 0 -11 -7 -1 -8 -7 -5 -17 7 -14 18 -15 18 -9 2 4
-13 2 -17 -6 -14 -7 2 -12 10 -10 17 2 10 0 11 -10 3 -7 -6 -17 -11 -22 -10
-5 1 -10 -5 -12 -15 -4 -28 -21 -52 -28 -39 -4 6 -2 11 5 11 7 0 9 3 6 6 -3 4
-2 14 3 24 6 12 5 17 -6 17 -7 0 -14 -4 -14 -9 0 -5 -11 -1 -25 8 -23 15 -24
15 -20 -6 3 -14 0 -20 -8 -17 -7 2 -11 13 -9 23 3 18 3 18 -11 -1 -9 -11 -19
-17 -23 -12 -4 4 -2 7 4 7 7 0 12 4 12 8 0 5 -7 9 -15 9 -8 0 -13 -3 -10 -5 7
-7 -15 -32 -27 -32 -6 0 -5 7 2 15 7 9 10 18 6 22 -3 3 -6 0 -6 -8 0 -12 -2
-12 -9 0 -6 9 -11 10 -15 2 -4 -6 -2 -11 4 -11 6 0 8 -5 4 -11 -5 -8 -9 -8
-14 1 -5 9 -9 9 -14 1 -4 -6 -3 -11 3 -11 10 0 9 -25 -2 -36 -6 -7 -11 10 -8
28 0 5 -4 8 -10 8 -6 0 -8 -7 -4 -17 5 -15 4 -16 -7 -5 -11 11 -10 16 5 27 12
8 14 15 8 20 -6 3 -11 0 -11 -7 -1 -8 -7 -5 -17 7 -14 18 -15 18 -9 2 4 -13 2
-17 -6 -14 -7 2 -12 10 -10 17 2 10 -1 10 -14 -1 -9 -8 -20 -14 -23 -14 -3 0
-6 -5 -7 -12 -4 -24 -21 -46 -28 -34 -4 6 -2 11 5 11 7 0 9 3 6 6 -3 4 -2 14
3 24 6 12 5 17 -6 17 -7 0 -14 -4 -14 -9 0 -5 -11 -1 -25 8 -23 15 -24 15 -20
-6 3 -14 0 -20 -8 -17 -7 2 -11 12 -9 22 3 13 -1 16 -15 11 -16 -5 -16 -5 1 9
11 8 14 15 8 15 -7 0 -12 5 -12 11 0 5 6 7 13 3 6 -4 3 3 -7 15 -17 18 -17 21
-3 15 10 -3 17 -1 17 5 0 6 -3 10 -7 10 -21 -3 -33 2 -27 12 4 8 0 8 -15 0
-12 -7 -26 -9 -32 -5 -8 4 -7 0 0 -15 10 -17 9 -20 -4 -15 -8 3 -13 9 -11 13
3 4 1 13 -3 20 -6 9 -11 10 -15 2 -4 -6 -2 -11 5 -11 8 0 8 -4 -1 -15 -7 -8
-17 -15 -22 -15 -6 0 -5 7 2 15 10 12 10 15 -1 15 -11 0 -11 2 1 10 8 5 10 10
5 10 -6 0 -16 -5 -23 -12 -9 -9 -12 -9 -12 1 0 7 -5 9 -11 6 -6 -4 -8 -13 -6
-19 3 -7 -1 -13 -9 -13 -9 0 -12 8 -10 23 3 17 1 21 -10 17 -15 -6 -15 21 0
46 6 9 5 12 -1 8 -6 -4 -17 0 -24 9 -11 13 -10 15 3 12 9 -1 18 1 20 6 2 5 -5
10 -14 12 -10 1 -18 -2 -18 -8 0 -6 -7 -4 -17 3 -11 10 -14 10 -9 2 9 -16 1
-16 -25 -2 -11 5 -16 15 -13 21 5 8 1 9 -12 4 -10 -4 -15 -4 -11 0 4 4 0 16
-10 26 -19 22 -6 24 17 3 14 -13 17 -13 17 0 0 8 -4 12 -9 9 -4 -3 -5 3 -2 13
4 14 3 15 -4 4 -7 -9 -12 -10 -16 -2 -4 6 -2 11 4 11 6 0 8 5 4 11 -4 8 -12 2
-21 -15 -7 -14 -18 -26 -24 -26 -6 0 -3 7 5 16 17 17 12 39 -6 28 -6 -4 -8 -3
-5 3 3 5 23 9 44 9 l38 -1 -1 -51 0 -51 50 1 51 1 0 -42 c0 -23 4 -45 8 -49 5
-5 50 -9 100 -9 l92 0 0 -42 c1 -23 4 -46 9 -50 12 -12 1096 -10 1097 2 1 6 1
28 1 50 l1 41 98 -1 c58 0 100 4 102 10 2 5 3 28 2 50 -2 40 -1 41 32 41 18 0
33 -4 33 -8 0 -5 8 -3 18 3 13 8 18 23 17 58 0 44 1 46 30 47 17 0 38 -3 48
-8 9 -5 17 -5 16 -1 -1 4 -1 54 0 111 l1 102 50 0 50 0 0 350 0 350 -50 0 -50
0 0 50 0 50 50 0 50 0 0 150 0 150 -50 0 -50 0 0 50 0 50 -100 0 -100 0 0 50
0 50 -50 0 -50 0 0 50 0 50 -50 0 -50 0 0 50 0 50 -100 0 -100 0 0 50 0 50
-300 0 -300 0 0 -50z m1185 -1801 c1 -8 -4 -17 -10 -21 -7 -6 -7 -10 0 -15 14
-11 15 -63 1 -63 -6 0 -4 -5 4 -10 11 -7 11 -10 2 -10 -7 0 -11 -4 -8 -8 2 -4
-12 -7 -32 -7 -20 1 -36 6 -35 11 1 6 -8 9 -20 8 -12 -1 -25 -3 -29 -3 -5 -1
-8 -6 -8 -12 0 -8 5 -8 15 1 17 14 17 16 19 -32 2 -23 -3 -39 -11 -42 -7 -3
-10 -11 -7 -19 4 -10 -12 -13 -73 -12 -60 1 -83 -3 -101 -16 -16 -12 -19 -19
-10 -23 7 -3 1 -3 -15 -1 -15 2 -25 0 -22 -5 3 -4 -2 -10 -10 -14 -8 -3 -15
-11 -14 -18 0 -10 2 -10 6 0 2 6 10 12 16 12 28 0 -26 -33 -58 -36 -41 -2 -52
8 -29 31 15 15 18 15 35 -1 11 -10 19 -12 19 -6 0 7 0 14 0 17 0 3 14 18 32
33 32 29 32 56 0 46 -14 -5 -14 -3 2 10 14 11 24 13 37 5 11 -5 19 -6 19 -2 0
4 5 1 10 -7 7 -10 12 -12 18 -4 4 6 17 10 30 9 21 -2 21 0 6 16 -15 17 -15 18
4 16 11 0 19 -4 16 -8 -10 -18 10 -38 37 -37 34 1 33 1 15 36 -12 23 -12 30 0
46 12 17 12 22 -1 36 -13 14 -12 16 10 16 14 0 25 -3 25 -7 0 -3 11 -6 25 -6
13 0 22 4 19 8 -3 5 -2 9 3 8 24 -4 29 5 28 44 -1 23 0 45 2 49 6 12 38 1 38
-13z m-1832 -45 c-3 -8 0 -14 7 -14 7 0 25 -9 41 -21 18 -13 29 -16 29 -8 0 8
7 6 19 -5 13 -11 18 -26 15 -42 -3 -14 1 -27 8 -29 7 -3 14 -20 14 -38 1 -32
0 -33 -34 -32 -25 0 -36 6 -38 18 -3 21 25 19 42 -3 10 -11 12 -8 11 17 -1 17
-5 29 -9 27 -4 -3 -22 9 -39 26 -32 30 -56 41 -43 18 5 -9 2 -9 -9 1 -10 7
-17 9 -17 3 0 -17 -33 -7 -36 11 -1 9 2 17 7 17 5 0 9 5 9 11 0 5 -4 8 -8 5
-4 -2 -8 6 -8 20 0 16 5 23 13 20 7 -3 15 -1 18 5 4 5 3 9 -2 8 -4 -1 -15 -1
-23 0 -13 1 -13 2 0 11 18 11 41 -6 33 -26z m101 -142 c3 -5 -1 -9 -9 -9 -8 0
-15 4 -15 9 0 10 17 10 24 0z m92 -8 c-7 -17 13 -29 26 -16 14 14 38 4 38 -17
0 -14 -2 -14 -10 -1 -9 13 -10 13 -10 0 0 -13 -1 -13 -10 0 -5 8 -10 10 -10 4
0 -13 -62 -13 -72 1 -4 5 -4 13 -1 18 3 4 11 0 18 -10 13 -17 13 -16 11 8 -2
17 2 26 11 26 8 0 12 -6 9 -13z m96 7 c-11 -6 -9 -9 6 -13 18 -5 24 -39 9 -54
-13 -14 -7 -26 10 -20 10 4 14 4 10 0 -4 -4 -3 -12 2 -18 4 -6 10 -18 13 -26
8 -21 -33 -22 -52 -1 -12 13 -12 14 3 8 10 -4 16 -3 12 2 -3 5 1 12 7 15 7 3
3 3 -9 1 -22 -6 -41 9 -24 19 8 5 8 34 1 44 -2 2 -3 39 -1 47 1 3 7 5 14 5 9
0 9 -2 -1 -9z m93 -101 c4 -6 11 -7 17 -4 6 4 6 0 -1 -13 -6 -11 -8 -23 -5
-26 4 -3 -3 -5 -15 -4 -25 2 -36 26 -15 34 13 5 13 7 2 14 -9 6 -9 9 -1 9 6 0
15 -5 18 -10z m93 -3 c6 -5 16 -6 20 -3 4 2 8 -4 8 -14 0 -10 -4 -16 -9 -13
-4 2 -13 1 -20 -4 -18 -14 -42 -9 -38 7 2 8 4 20 4 26 0 13 15 13 35 1z m227
3 c4 -6 11 -7 17 -4 6 4 6 0 -1 -13 -6 -11 -8 -23 -5 -26 4 -3 -3 -5 -15 -4
-25 2 -36 26 -15 34 13 5 13 7 2 14 -9 6 -9 9 -1 9 6 0 15 -5 18 -10z m93 -3
c6 -5 16 -6 20 -3 4 2 8 -4 8 -14 0 -10 -4 -16 -9 -13 -4 2 -13 1 -20 -4 -18
-14 -42 -9 -38 7 2 8 4 20 4 26 0 13 15 13 35 1z m227 3 c4 -6 11 -7 17 -4 6
4 6 0 -1 -13 -6 -11 -8 -23 -5 -26 4 -3 -3 -5 -15 -4 -25 2 -36 26 -15 34 13
5 13 7 2 14 -9 6 -9 9 -1 9 6 0 15 -5 18 -10z m93 -3 c6 -5 16 -6 20 -3 4 2 8
-4 8 -14 0 -10 -4 -16 -9 -13 -4 2 -13 1 -20 -4 -18 -14 -42 -9 -38 7 2 8 4
20 4 26 0 13 15 13 35 1z m227 3 c4 -6 11 -7 17 -4 6 4 6 0 -1 -13 -6 -11 -8
-23 -5 -26 4 -3 -3 -5 -15 -4 -25 2 -36 26 -15 34 13 5 13 7 2 14 -9 6 -9 9
-1 9 6 0 15 -5 18 -10z m191 -24 c0 -12 -5 -23 -12 -23 -7 0 -11 9 -9 19 2 10
-1 18 -6 18 -6 0 -8 4 -4 10 10 16 31 0 31 -24z m-875 -2 c6 -16 3 -20 -17
-20 -16 0 -23 5 -20 13 3 7 1 15 -5 18 -5 4 -9 3 -8 -2 1 -4 1 -15 0 -23 -1
-12 -3 -12 -10 -2 -4 8 -11 13 -15 13 -20 -3 -26 0 -20 10 5 8 8 8 14 0 5 -9
10 -8 18 2 17 20 54 14 63 -9z m320 0 c6 -16 3 -20 -17 -20 -16 0 -23 5 -20
13 3 7 1 15 -5 18 -5 4 -9 3 -8 -2 1 -4 1 -15 0 -23 -1 -12 -3 -12 -10 -2 -4
8 -11 13 -15 13 -20 -3 -26 0 -20 10 5 8 8 8 14 0 5 -9 10 -8 18 2 17 20 54
14 63 -9z m320 0 c6 -16 3 -20 -17 -20 -16 0 -23 5 -20 13 3 7 1 15 -5 18 -5
4 -9 3 -8 -2 1 -4 1 -15 0 -23 -1 -12 -3 -12 -10 -2 -4 8 -11 13 -15 13 -20
-3 -26 0 -20 10 5 8 8 8 14 0 5 -9 10 -8 18 2 17 20 54 14 63 -9z"/>
<path d="M2154 329 c-3 -6 -2 -15 3 -20 5 -5 9 -1 9 11 0 23 -2 24 -12 9z"/>
<path d="M2150 286 c0 -2 7 -7 16 -10 8 -3 12 -2 9 4 -6 10 -25 14 -25 6z"/>
<path d="M2150 265 c5 -21 0 -36 -10 -30 -6 4 -7 11 -4 17 4 7 2 8 -5 4 -16
-10 5 -37 24 -30 14 6 14 28 1 41 -4 4 -7 4 -6 -2z"/>
<path d="M2065 211 c-3 -5 -2 -12 3 -15 5 -3 9 1 9 9 0 17 -3 19 -12 6z"/>
<path d="M2036 201 c-4 -6 -2 -11 4 -11 6 0 9 -4 6 -8 -2 -4 -1 -14 3 -20 6
-10 11 -9 21 3 11 13 10 14 -5 9 -11 -5 -16 -3 -12 2 3 6 2 16 -2 23 -6 9 -11
10 -15 2z"/>
<path d="M1872 136 c16 -18 15 -20 -5 -38 -18 -16 -16 -15 11 2 17 12 32 24
32 27 0 4 -3 3 -7 0 -3 -4 -16 1 -27 10 -20 17 -20 17 -4 -1z"/>
<path d="M1946 132 c-3 -5 1 -9 9 -9 8 0 12 4 9 9 -3 4 -7 8 -9 8 -2 0 -6 -4
-9 -8z"/>
<path d="M1763 35 c-10 -11 -9 -13 6 -12 11 1 17 7 14 14 -6 16 -5 16 -20 -2z"/>
<path d="M329 276 c7 -8 10 -20 9 -27 -2 -8 9 -13 30 -14 22 0 41 -10 58 -28
29 -32 46 -37 18 -5 -16 18 -16 20 -2 15 11 -4 15 -1 14 11 -2 9 -9 17 -17 17
-8 1 -25 7 -38 14 -13 7 -21 8 -17 3 4 -6 -2 -10 -14 -9 -21 1 -29 17 -8 17
18 0 3 10 -22 15 -17 3 -20 1 -11 -9z m86 -36 c3 -5 12 -7 20 -3 8 3 15 3 15
0 0 -13 -28 -13 -45 -1 -10 8 -14 14 -8 14 7 0 14 -4 18 -10z"/>
<path d="M640 130 c-9 -6 -10 -10 -3 -10 6 0 15 5 18 10 8 12 4 12 -15 0z"/>
<path d="M801 41 c-9 -16 -8 -19 6 -17 20 3 28 21 14 30 -5 4 -15 -2 -20 -13z"/>
<path d="M1121 41 c-9 -16 -8 -19 6 -17 20 3 28 21 14 30 -5 4 -15 -2 -20 -13z"/>
<path d="M1441 41 c-9 -16 -8 -19 6 -17 20 3 28 21 14 30 -5 4 -15 -2 -20 -13z"/>
<path d="M375 380 c3 -5 8 -10 11 -10 2 0 4 5 4 10 0 6 -5 10 -11 10 -5 0 -7
-4 -4 -10z"/>
<path d="M1895 179 c-4 -5 -4 -9 -1 -9 2 0 11 -3 19 -6 8 -3 17 1 20 8 6 16
-29 22 -38 7z"/>
<path d="M886 78 c3 -5 10 -6 15 -3 13 9 11 12 -6 12 -8 0 -12 -4 -9 -9z"/>
<path d="M1206 78 c3 -5 10 -6 15 -3 13 9 11 12 -6 12 -8 0 -12 -4 -9 -9z"/>
<path d="M1526 78 c3 -5 10 -6 15 -3 13 9 11 12 -6 12 -8 0 -12 -4 -9 -9z"/>
</g>
</svg>
